<?xml version="1.0" encoding="utf-8"?>
<!-- Generator: Adobe Illustrator 27.5.0, SVG Export Plug-In . SVG Version: 6.00 Build 0)  -->
<svg version="1.1" id="Layer_1" xmlns="http://www.w3.org/2000/svg" xmlns:xlink="http://www.w3.org/1999/xlink" x="0px" y="0px"
	 width="300px" height="125.9px" viewBox="0 0 300 125.9" style="enable-background:new 0 0 300 125.9;" xml:space="preserve">
<style type="text/css">
	.st0{fill:#03335A;}
	.st1{fill:#C80431;}
	.st2{opacity:0.6;fill:#9DBAD6;}
</style>
<g>
	<g>
		<path class="st0" d="M51.5,49.3v-1.4h4.2c0,3.8-2.4,5.3-4.8,5.3c-2.9,0-5.3-2.2-5.3-5c0-2.8,2.3-5.1,5.2-5.1
			c2.4,0,3.7,1.2,3.7,1.3l-0.8,1.2c-0.1-0.1-1.1-1-2.9-1c-2.1,0-3.5,1.6-3.5,3.6c0,1.7,1.3,3.5,3.5,3.5c1.7,0,2.9-1,3-2.5H51.5z"/>
		<path class="st0" d="M60.9,53v-9.7h1.6v8.2h4.1V53H60.9z"/>
		<path class="st0" d="M76,53.2c-3,0-5.3-2.3-5.3-5.1c0-2.8,2.4-5.1,5.3-5.1c2.9,0,5.3,2.2,5.3,5.1C81.3,51,78.9,53.2,76,53.2z
			 M76,44.6c-2,0-3.6,1.5-3.6,3.5c0,1.9,1.6,3.6,3.5,3.6c2,0,3.6-1.6,3.6-3.6C79.6,46.1,78,44.6,76,44.6z"/>
		<path class="st0" d="M86.7,53v-9.7H89c2,0,3.6,0.6,3.6,2.4c0,1.2-0.9,1.8-1.4,2.1c0.9,0.2,2.2,0.9,2.2,2.5c0,1.6-1.3,2.7-3.9,2.7
			H86.7z M89.1,47.2c1.1,0,1.7-0.4,1.7-1.2s-0.7-1.2-1.6-1.2h-1v2.4H89.1z M89.8,51.5c1.3,0,1.9-0.6,1.9-1.4c0-0.9-0.7-1.5-1.9-1.5
			h-1.4v2.9H89.8z"/>
		<path class="st0" d="M105.5,53l-0.9-1.9h-4.5L99.2,53h-1.8l5-10.1l5,10.1H105.5z M102.5,46.6c-0.1-0.1-0.2-0.3-0.2-0.5
			c0,0.1-0.1,0.3-0.2,0.5l-1.4,3h3.1L102.5,46.6z"/>
		<path class="st0" d="M112,53v-9.7h1.6v8.2h4.1V53H112z"/>
		<path class="st0" d="M129.7,53v-9.7h1.6V53H129.7z"/>
		<path class="st0" d="M138.9,46.9l0,6.2h-1.6l0-10l7.2,6.7l0-6.4h1.6l0,10.1L138.9,46.9z"/>
		<path class="st0" d="M150.8,43.3h1.8l2.9,6.5c0.1,0.1,0.1,0.3,0.1,0.4c0-0.2,0-0.3,0.1-0.4l2.8-6.5h1.8l-4.7,10.2L150.8,43.3z"/>
		<path class="st0" d="M165,53v-9.7h5.6v1.5h-4v2.3h3.2v1.5h-3.2v2.9h4.4V53H165z"/>
		<path class="st0" d="M176.5,50.7c0.5,0.5,1.4,1.1,2.5,1.1c1,0,1.6-0.5,1.6-1.3c0-1.1-0.9-1.4-1.9-1.9c-1.2-0.6-2.5-1.3-2.5-2.8
			c0-1.7,1.6-2.6,3.1-2.6c1.5,0,2.4,0.9,2.6,1.1l-0.8,1.2c-0.5-0.5-1.1-0.8-1.8-0.8c-0.7,0-1.4,0.3-1.4,1.1c0,1.8,4.4,1.4,4.4,4.8
			c0,1.5-1.3,2.8-3.5,2.8c-1.4,0-2.7-0.8-3.2-1.4L176.5,50.7z"/>
		<path class="st0" d="M189.7,53v-8.2h-2.9v-1.5h7.4v1.5h-2.9V53H189.7z"/>
		<path class="st0" d="M203.7,53.2c-3,0-5.3-2.3-5.3-5.1c0-2.8,2.4-5.1,5.3-5.1c2.9,0,5.3,2.2,5.3,5.1C209,51,206.6,53.2,203.7,53.2
			z M203.7,44.6c-2,0-3.6,1.5-3.6,3.5c0,1.9,1.6,3.6,3.5,3.6c2,0,3.6-1.6,3.6-3.6C207.2,46.1,205.6,44.6,203.7,44.6z"/>
		<path class="st0" d="M219.6,53l-3.3-3.6H216V53h-1.6v-9.7h2.1c1.8,0,4.1,0.5,4.1,3c0,1.3-1,2.6-2.5,2.9l3.8,3.8H219.6z M216.7,48
			c1.5,0,2.2-0.7,2.2-1.6c0-1-0.7-1.6-2.1-1.6H216V48H216.7z"/>
		<path class="st0" d="M226.3,50.7c0.5,0.5,1.4,1.1,2.5,1.1c1,0,1.6-0.5,1.6-1.3c0-1.1-0.9-1.4-1.9-1.9c-1.2-0.6-2.5-1.3-2.5-2.8
			c0-1.7,1.6-2.6,3.1-2.6c1.5,0,2.4,0.9,2.6,1.1l-0.8,1.2c-0.5-0.5-1.1-0.8-1.8-0.8s-1.4,0.3-1.4,1.1c0,1.8,4.4,1.4,4.4,4.8
			c0,1.5-1.3,2.8-3.5,2.8c-1.4,0-2.7-0.8-3.2-1.4L226.3,50.7z"/>
	</g>
	<path class="st1" d="M61.7,9.8H66v22.6c-1.9,2-5.3,3.7-10.4,3.7c-6.6,0-10.3-3.3-10.3-10V9.8h4.3v13.9c0,6.4,1.5,8.5,6.8,8.5
		c2.1,0,4-0.5,5.3-1.5V9.8z"/>
	<path class="st1" d="M77.9,35.4V9.8h4.3v25.7H77.9z"/>
	<path class="st1" d="M98.4,19.2l0.1,16.2h-4.3l0-26.4l19.1,17.6l-0.1-16.9h4.3l0,26.6L98.4,19.2z"/>
	<path class="st1" d="M133.7,19.2l0.1,16.2h-4.3l0-26.4l19.1,17.6l-0.1-16.9h4.3l0,26.6L133.7,19.2z"/>
	<path class="st1" d="M164.7,35.4V9.8h14.9v3.9H169v6.1h8.5v3.9H169v7.7h11.6v3.9H164.7z"/>
	<path class="st1" d="M191.3,29.3c1.3,1.2,3.6,2.8,6.6,2.8c2.7,0,4.3-1.3,4.3-3.4c0-2.9-2.4-3.8-5-5.1c-3.3-1.7-6.5-3.5-6.5-7.5
		c0-4.5,4.1-6.9,8.3-6.9c3.8,0,6.4,2.3,7,2.9l-2.1,3.2c-1.3-1.3-2.9-2.2-4.8-2.2c-1.9,0-3.8,0.8-3.8,2.8c0,4.8,11.6,3.7,11.6,12.7
		c0,3.9-3.4,7.4-9.2,7.4c-3.7,0-7.3-2.2-8.6-3.6L191.3,29.3z"/>
	<path class="st1" d="M217.6,29.3c1.3,1.2,3.6,2.8,6.6,2.8c2.7,0,4.3-1.3,4.3-3.4c0-2.9-2.4-3.8-5-5.1c-3.3-1.7-6.5-3.5-6.5-7.5
		c0-4.5,4.1-6.9,8.3-6.9c3.8,0,6.4,2.3,7,2.9l-2.1,3.2c-1.3-1.3-2.9-2.2-4.8-2.2c-1.9,0-3.8,0.8-3.8,2.8c0,4.8,11.6,3.7,11.6,12.7
		c0,3.9-3.4,7.4-9.2,7.4c-3.7,0-7.3-2.2-8.6-3.6L217.6,29.3z"/>
	<path class="st1" d="M25.7,29v-3.7h13.1C38.7,37,31.1,42.1,23.2,42.1c-9.6,0-17.4-7.5-17.4-16.9c0-9.5,7.4-17.1,17.4-17.1
		c7.7,0,12.1,4.2,12.3,4.5l-2.2,3.1c-0.2-0.3-4.1-3.8-10.2-3.8c-8,0-12.9,5.9-12.9,13.4c0,6.7,5.4,13.1,13.3,13.1
		c5.6,0,10.4-3.5,10.9-9.4H25.7z"/>
	<path class="st0" d="M24.4,47.7v2.6h11v3.2H10.1v-3.2h11v-2.7c-6.8-0.5-11.4-4.1-12.5-4.9C2.3,37.6,0.1,30.1,0.2,25
		c0-3.2,0.8-6.1,0.9-6.4c1-3.4,2.4-5.7,2.9-6.4c2.9-4.3,6.7-6.6,8.8-7.6c0.5,0.8,1,1.5,1.5,2.3C7.4,10.5,3,17.4,3,24.9
		c0,0.6,0.1,10,7.8,15.9c5.1,3.9,10.7,4.1,12,4.1c2.2,0,4-0.4,5-0.6c5.6-1.5,9.1-5.2,10.7-7.1c0.7,0.6,1.4,1.3,2,1.9
		c-1.3,1.6-4.1,4.8-8.8,6.8C30.4,46.5,27.8,47.5,24.4,47.7z"/>
	<g>
		<g>
			<g>
				<path class="st0" d="M273.2,22.4c0,1.9-1.4,4.3-3.6,6.5l-6.2,6.6h10.9v2.2h-13.8v-1.9l7.5-8.2c1.7-1.7,2.8-3.6,2.8-4.9
					c0-2-1.5-3.1-4-3.1c-1.8,0-3.9,0.9-5.5,2.5l-1-1.8c2-1.8,4.4-2.8,6.8-2.8C270.8,17.4,273.2,19.3,273.2,22.4z"/>
			</g>
		</g>
		<g>
			<g>
				<path class="st0" d="M285.6,35.3v0.5h4.2v1.8h-10.3v-1.8h4.2v-0.5c-4.5-0.5-8.1-4.3-8.1-9c0-5,4-9,9-9c1.4,0,2.7,0.3,4,0.9
					l-0.6,1.3c-0.3-0.2-0.9-0.4-1.5-0.5c-2.3-0.5-4.2,0.3-4.7,0.5c-2.2,1-4.7,3.5-4.7,6.8c0,3.8,3.2,7.6,7.6,7.6
					c4.2,0,7.6-3.4,7.6-7.6c0-0.4,0-0.8-0.1-1.3l1.4-0.2c0.1,0.5,0.1,1,0.1,1.5C293.7,31,290.2,34.8,285.6,35.3z"/>
			</g>
			<g>
				<path class="st0" d="M291,20.4l-1.1,1.2l-0.3-0.3l1.1-1.2l-0.4-0.4l0.3-0.3l1.2,1.1l-0.3,0.3L291,20.4z"/>
				<path class="st0" d="M291.2,23.3l0.7-0.4l-0.5-0.8l-0.7,0.4l-0.2-0.4l1.7-1.1l0.2,0.4l-0.7,0.5l0.5,0.8l0.7-0.5l0.2,0.4
					l-1.7,1.1L291.2,23.3z"/>
			</g>
		</g>
		<path class="st0" d="M257.2,43.6c-3.4-4.4-5.2-9.7-5.2-15.3c0-5.2,1.6-10.3,4.6-14.5l1.7,1.2c-2.8,3.9-4.2,8.5-4.2,13.3
			c0,5.1,1.6,10,4.8,14L257.2,43.6z"/>
		<path class="st0" d="M295,42.9l-1.7-1.2c2.7-3.8,4.2-8.3,4.4-13c0.2-5.4-1.4-10.5-4.6-14.8l1.6-1.2c3.5,4.7,5.2,10.2,5,16
			C299.6,33.9,297.9,38.8,295,42.9z"/>
		<g>
			<path class="st1" d="M259.7,10.7c0.3,0.3,0.4,0.7,0.4,1.3l0.1,1.1l1-1.1l0.5,0.5l-1.7,1.8l-0.4-0.4l-0.1-1.8
				c0-0.3-0.1-0.6-0.2-0.7c-0.2-0.2-0.4-0.1-0.6,0.1c-0.2,0.2-0.3,0.6-0.3,1l-0.6-0.2c0.1-0.5,0.2-1,0.6-1.3
				C258.7,10.4,259.3,10.3,259.7,10.7z"/>
			<path class="st1" d="M263.6,8.8c0.7,0.9,0.6,1.7-0.1,2.3c-0.8,0.6-1.6,0.4-2.3-0.5c-0.7-0.9-0.6-1.7,0.1-2.3
				C262.1,7.7,262.9,7.9,263.6,8.8z M261.8,10.1c0.5,0.7,0.9,0.8,1.3,0.5c0.4-0.3,0.4-0.7-0.1-1.4c-0.5-0.7-0.9-0.8-1.3-0.5
				C261.3,9,261.3,9.4,261.8,10.1z"/>
			<path class="st1" d="M267.1,6.9c0.5,1,0.3,1.8-0.5,2.2c-0.9,0.4-1.6,0.1-2.1-0.9c-0.5-1-0.3-1.8,0.6-2.2
				C265.9,5.5,266.6,5.9,267.1,6.9z M265.2,7.8c0.4,0.7,0.7,0.9,1.1,0.7c0.4-0.2,0.5-0.6,0.1-1.4c-0.4-0.7-0.7-0.9-1.1-0.7
				C264.9,6.7,264.8,7.1,265.2,7.8z"/>
			<path class="st1" d="M269.4,5.8c0.5-0.1,1,0.1,1.1,0.6c0.2,0.6-0.1,1.2-0.9,1.4c-0.4,0.1-0.9,0.1-1.3,0l0.1-0.7
				c0.3,0.2,0.6,0.2,0.9,0.1c0.4-0.1,0.5-0.3,0.4-0.6c-0.1-0.3-0.3-0.4-0.7-0.3l-0.5,0.2l-0.1-0.4l0.5-1l-1.2,0.4l-0.2-0.6l2.1-0.6
				l0.1,0.4l-0.6,1.2L269.4,5.8z"/>
			<path class="st1" d="M274.7,5.7l0-0.5l1.3,0l0,0.5L274.7,5.7z"/>
			<path class="st1" d="M283,5.4c-0.1,0.4-0.5,0.7-0.9,0.9l-0.9,0.6l1.5,0.4L282.4,8L280,7.3l0.1-0.5l1.5-1c0.3-0.2,0.5-0.4,0.5-0.5
				c0.1-0.2-0.1-0.4-0.3-0.5c-0.3-0.1-0.7,0-1,0.2l-0.1-0.6c0.5-0.2,1-0.3,1.4-0.2C282.8,4.4,283.1,4.9,283,5.4z"/>
			<path class="st1" d="M286.5,7.8c-0.5,1-1.2,1.4-2.1,1c-0.9-0.4-1.1-1.2-0.6-2.2c0.5-1,1.2-1.4,2.1-1C286.8,6,287,6.8,286.5,7.8z
				 M284.6,6.9c-0.3,0.7-0.3,1.2,0.2,1.4c0.4,0.2,0.8,0,1.1-0.8c0.3-0.7,0.3-1.1-0.2-1.3C285.2,6,284.9,6.2,284.6,6.9z"/>
			<path class="st1" d="M289.9,9c-0.2,0.3-0.6,0.5-1.2,0.6l-1.1,0.2l1.3,0.8l-0.4,0.5l-2.1-1.4l0.3-0.4l1.8-0.4
				c0.3-0.1,0.6-0.2,0.6-0.3c0.1-0.2,0.1-0.4-0.2-0.5c-0.2-0.2-0.6-0.2-1-0.2l0.1-0.7c0.5,0,1,0.1,1.4,0.3C290,8,290.2,8.5,289.9,9z
				"/>
			<path class="st1" d="M291.5,11.1c0.3,0.4,0.4,0.9,0,1.3c-0.4,0.5-1.1,0.5-1.7,0c-0.3-0.3-0.6-0.7-0.6-1.1l0.6-0.2
				c0,0.4,0.1,0.7,0.4,0.9c0.3,0.3,0.6,0.3,0.8,0c0.2-0.2,0.2-0.5-0.1-0.7l-0.4-0.4l0.3-0.3l1.2-0.1L291,9.5l0.4-0.5l1.6,1.5
				l-0.3,0.3l-1.3,0.1L291.5,11.1z"/>
		</g>
		<g>
			<path class="st1" d="M259.4,45.7l-0.7,0.3l-0.6-0.6l3.5-1.5l0.6,0.6l-1.3,3.6l-0.6-0.6l0.3-0.7L259.4,45.7z M261.3,44.8l-1.3,0.6
				l0.8,0.8L261.3,44.8z"/>
			<path class="st1" d="M263.6,49.8l-0.2-2.8l-1.2,1.9l-0.6-0.4l1.9-2.9L264,46l0.2,2.8l1.2-1.9l0.6,0.4l-1.9,2.9L263.6,49.8z"/>
			<path class="st1" d="M267.5,51.7l-0.7-2.7l-0.8,2.1l-0.7-0.3l1.3-3.2l0.7,0.3l0.7,2.7l0.8-2.1l0.7,0.3l-1.3,3.2L267.5,51.7z"/>
			<path class="st1" d="M269.2,52.2l0.9-3.4l0.8,0.2l-0.9,3.4L269.2,52.2z"/>
			<path class="st1" d="M271.9,52.8l-0.9-3.6l0.8,0.1l0.6,2.7l1.3-2.5l0.8,0.1l-1.8,3.3L271.9,52.8z"/>
			<path class="st1" d="M275.5,50.2l0,0.8l1.7-0.1l0,0.7l-1.7,0.1l0,0.8l1.9-0.1l0,0.7l-2.7,0.1l-0.1-3.5l2.6-0.1l0,0.7L275.5,50.2z
				"/>
			<path class="st1" d="M279.9,51.6L279.9,51.6l-0.8,0.2l0.2,1l-0.8,0.2l-0.7-3.4l1.5-0.3c0.9-0.2,1.5,0.2,1.6,0.9
				c0.1,0.5,0,1-0.4,1.2l1,1l-0.9,0.2L279.9,51.6z M279.7,51c0.4-0.1,0.6-0.3,0.6-0.7c-0.1-0.4-0.4-0.5-0.8-0.4l-0.7,0.1l0.2,1.2
				L279.7,51z"/>
			<path class="st1" d="M283.7,48.2l-0.1,0.7c-0.4-0.1-0.9-0.1-1.1,0c-0.2,0.1-0.4,0.2-0.3,0.4c0.2,0.6,1.8-0.4,2.3,0.8
				c0.2,0.6-0.2,1.2-0.9,1.5c-0.5,0.2-1.1,0.2-1.6,0l0.1-0.7c0.4,0.2,1,0.2,1.3,0.1c0.3-0.1,0.4-0.3,0.4-0.5
				c-0.2-0.6-1.8,0.4-2.3-0.8c-0.2-0.6,0.2-1.2,0.9-1.4C282.8,48.1,283.3,48.1,283.7,48.2z"/>
			<path class="st1" d="M285.9,49.8l0.1,0.7l-0.7,0.4l-0.4-3.8l0.7-0.4l3,2.3l-0.7,0.4l-0.6-0.5L285.9,49.8z M285.6,47.7l0.2,1.4
				l1-0.5L285.6,47.7z"/>
			<path class="st1" d="M289.8,46.8L289.8,46.8l-0.6,0.5l0.6,0.8l-0.6,0.5l-2.2-2.7l1.2-1c0.7-0.6,1.4-0.6,1.9,0
				c0.3,0.4,0.4,0.9,0.2,1.3l1.3,0.4l-0.7,0.6L289.8,46.8z M289.3,46.3c0.3-0.3,0.4-0.6,0.1-0.9c-0.2-0.3-0.6-0.3-0.9,0l-0.6,0.5
				l0.8,0.9L289.3,46.3z"/>
			<path class="st1" d="M293.3,44.7l-0.5,0.6l-0.8-0.7l-2.6-0.6l0.5-0.6l1.8,0.3l-0.6-1.7l0.5-0.6l1,2.5L293.3,44.7z"/>
		</g>
		<path class="st1" d="M285.9,27.7v-1.4h4.8c0,4.3-2.8,6.2-5.7,6.2c-3.5,0-6.3-2.8-6.3-6.2c0-3.5,2.7-6.2,6.4-6.2
			c2.8,0,4.4,1.5,4.5,1.6l-0.8,1.1c-0.1-0.1-1.5-1.4-3.7-1.4c-2.9,0-4.7,2.1-4.7,4.9c0,2.5,2,4.8,4.9,4.8c2,0,3.8-1.3,4-3.5H285.9z"
			/>
	</g>
</g>
<rect y="64.1" class="st2" width="300" height="61.7"/>
<g>
	<path d="M42.4,90.7l-2,6h-0.9L37.8,92l-1.6,4.8h-0.9l-2-6h0.9l1.6,4.9l1.7-4.9h0.8l1.7,4.9l1.7-4.9H42.4z"/>
	<path d="M47.1,94.8h-3.7c0.1,0.8,0.7,1.3,1.7,1.3c0.5,0,1-0.2,1.3-0.6l0.5,0.5c-0.4,0.5-1,0.7-1.8,0.7c-1.5,0-2.5-1-2.5-2.3
		c0-1.4,1-2.3,2.3-2.3c1.3,0,2.3,0.9,2.3,2.3C47.1,94.6,47.1,94.7,47.1,94.8z M43.4,94.2h2.9c-0.1-0.8-0.7-1.3-1.5-1.3
		C44.1,92.9,43.5,93.4,43.4,94.2z"/>
	<path d="M52.6,90.4v6.4h-0.8V96c-0.4,0.5-1,0.8-1.6,0.8c-1.3,0-2.3-0.9-2.3-2.3c0-1.4,1-2.3,2.3-2.3c0.6,0,1.2,0.2,1.6,0.7v-2.5
		H52.6z M51.7,94.5c0-1-0.7-1.6-1.5-1.6c-0.9,0-1.5,0.6-1.5,1.6c0,1,0.7,1.6,1.5,1.6C51.1,96.1,51.7,95.5,51.7,94.5z"/>
	<path d="M58.5,94.1v2.6h-0.8v-2.5c0-0.9-0.4-1.3-1.2-1.3c-0.9,0-1.4,0.5-1.4,1.5v2.3h-0.8v-4.6h0.8v0.7c0.3-0.5,0.9-0.7,1.6-0.7
		C57.7,92.2,58.5,92.8,58.5,94.1z"/>
	<path d="M64.1,94.8h-3.7c0.1,0.8,0.7,1.3,1.7,1.3c0.5,0,1-0.2,1.3-0.6l0.5,0.5c-0.4,0.5-1,0.7-1.8,0.7c-1.5,0-2.5-1-2.5-2.3
		c0-1.4,1-2.3,2.3-2.3c1.3,0,2.3,0.9,2.3,2.3C64.1,94.6,64.1,94.7,64.1,94.8z M60.4,94.2h2.9c-0.1-0.8-0.7-1.3-1.5-1.3
		C61.1,92.9,60.5,93.4,60.4,94.2z"/>
	<path d="M64.7,96.3l0.3-0.7c0.4,0.3,1,0.5,1.6,0.5c0.8,0,1.1-0.2,1.1-0.6c0-1-2.9-0.1-2.9-2c0-0.8,0.7-1.4,1.9-1.4
		c0.6,0,1.3,0.2,1.7,0.4l-0.4,0.7c-0.4-0.3-0.9-0.4-1.3-0.4c-0.7,0-1.1,0.3-1.1,0.6c0,1.1,2.9,0.2,2.9,2c0,0.8-0.8,1.4-2,1.4
		C65.8,96.8,65.1,96.6,64.7,96.3z"/>
	<path d="M73.9,90.4v6.4h-0.8V96c-0.4,0.5-1,0.8-1.6,0.8c-1.3,0-2.3-0.9-2.3-2.3c0-1.4,1-2.3,2.3-2.3c0.6,0,1.2,0.2,1.6,0.7v-2.5
		H73.9z M73.1,94.5c0-1-0.7-1.6-1.5-1.6c-0.9,0-1.5,0.6-1.5,1.6c0,1,0.7,1.6,1.5,1.6C72.4,96.1,73.1,95.5,73.1,94.5z"/>
	<path d="M79.1,94v2.8h-0.8v-0.6c-0.3,0.4-0.8,0.7-1.5,0.7c-1,0-1.7-0.6-1.7-1.3c0-0.7,0.5-1.3,1.8-1.3h1.3V94
		c0-0.7-0.4-1.1-1.2-1.1c-0.5,0-1.1,0.2-1.4,0.5l-0.3-0.6c0.5-0.4,1.2-0.6,1.9-0.6C78.4,92.2,79.1,92.8,79.1,94z M78.3,95.4v-0.6H77
		c-0.8,0-1,0.3-1,0.7c0,0.5,0.4,0.7,1,0.7C77.6,96.2,78.1,95.9,78.3,95.4z"/>
	<path d="M84.6,92.2l-2.2,5c-0.4,1-0.9,1.3-1.6,1.3c-0.4,0-0.9-0.1-1.2-0.4l0.4-0.6c0.2,0.2,0.5,0.3,0.8,0.3c0.4,0,0.6-0.2,0.9-0.7
		l0.1-0.3l-2-4.6h0.9l1.6,3.6l1.6-3.6H84.6z"/>
	<path d="M92.1,95.1c0,1.1-0.9,1.8-2.4,1.8c-1.5,0-2.4-0.7-2.4-1.8c0-0.7,0.4-1.2,1.1-1.5c-0.6-0.3-0.8-0.7-0.8-1.3
		c0-1,0.9-1.6,2.2-1.6c1.3,0,2.2,0.6,2.2,1.6c0,0.6-0.3,1-0.9,1.3C91.7,93.9,92.1,94.4,92.1,95.1z M91.2,95c0-0.7-0.6-1.1-1.5-1.1
		c-1,0-1.5,0.4-1.5,1.1c0,0.7,0.6,1.1,1.5,1.1C90.6,96.1,91.2,95.7,91.2,95z M88.3,92.3c0,0.6,0.5,1,1.3,1c0.8,0,1.3-0.4,1.3-1
		c0-0.6-0.5-1-1.3-1C88.8,91.4,88.3,91.7,88.3,92.3z"/>
	<path d="M100.8,90.7v6h-0.7l-3.6-4.5v4.5h-0.9v-6h0.7l3.6,4.5v-4.5H100.8z"/>
	<path d="M102.1,94.5c0-1.4,1-2.3,2.4-2.3c1.4,0,2.4,1,2.4,2.3c0,1.4-1,2.3-2.4,2.3C103.1,96.8,102.1,95.8,102.1,94.5z M106,94.5
		c0-1-0.7-1.6-1.5-1.6s-1.5,0.6-1.5,1.6c0,1,0.7,1.6,1.5,1.6S106,95.5,106,94.5z"/>
	<path d="M111.9,92.2l-2,4.6h-0.8l-2-4.6h0.9l1.6,3.7l1.6-3.7H111.9z"/>
	<path d="M116.7,94.8H113c0.1,0.8,0.7,1.3,1.7,1.3c0.5,0,1-0.2,1.3-0.6l0.5,0.5c-0.4,0.5-1,0.7-1.8,0.7c-1.5,0-2.5-1-2.5-2.3
		c0-1.4,1-2.3,2.3-2.3c1.3,0,2.3,0.9,2.3,2.3C116.7,94.6,116.7,94.7,116.7,94.8z M113,94.2h2.9c-0.1-0.8-0.7-1.3-1.5-1.3
		C113.6,92.9,113,93.4,113,94.2z"/>
	<path d="M125.4,94.1v2.6h-0.8v-2.5c0-0.9-0.4-1.3-1.2-1.3c-0.8,0-1.4,0.5-1.4,1.5v2.3h-0.8v-2.5c0-0.9-0.4-1.3-1.2-1.3
		c-0.8,0-1.4,0.5-1.4,1.5v2.3h-0.8v-4.6h0.8v0.7c0.3-0.5,0.9-0.7,1.6-0.7c0.7,0,1.3,0.3,1.6,0.8c0.3-0.5,1-0.8,1.8-0.8
		C124.6,92.2,125.4,92.8,125.4,94.1z"/>
	<path d="M131.6,94.5c0,1.4-1,2.3-2.3,2.3c-0.7,0-1.3-0.3-1.6-0.8v0.7h-0.8v-6.4h0.8v2.5c0.4-0.5,0.9-0.7,1.6-0.7
		C130.7,92.2,131.6,93.1,131.6,94.5z M130.8,94.5c0-1-0.7-1.6-1.5-1.6c-0.9,0-1.5,0.6-1.5,1.6c0,1,0.7,1.6,1.5,1.6
		C130.2,96.1,130.8,95.5,130.8,94.5z"/>
	<path d="M136.9,94.8h-3.7c0.1,0.8,0.7,1.3,1.7,1.3c0.5,0,1-0.2,1.3-0.6l0.5,0.5c-0.4,0.5-1,0.7-1.8,0.7c-1.5,0-2.5-1-2.5-2.3
		c0-1.4,1-2.3,2.3-2.3c1.3,0,2.3,0.9,2.3,2.3C136.9,94.6,136.9,94.7,136.9,94.8z M133.2,94.2h2.9c-0.1-0.8-0.7-1.3-1.5-1.3
		C133.9,92.9,133.3,93.4,133.2,94.2z"/>
	<path d="M140.5,92.2V93c-0.1,0-0.1,0-0.2,0c-0.9,0-1.4,0.5-1.4,1.5v2.3h-0.8v-4.6h0.8V93C139.2,92.4,139.7,92.2,140.5,92.2z"/>
	<path d="M143.6,94.1h2.3v0.7h-2.3V94.1z"/>
	<path d="M155.2,96.8l0-4.4L153,96h-0.4l-2.2-3.6v4.4h-0.8v-6h0.7l2.5,4.2l2.5-4.2h0.7l0,6H155.2z"/>
	<path d="M161.4,94v2.8h-0.8v-0.6c-0.3,0.4-0.8,0.7-1.5,0.7c-1,0-1.7-0.6-1.7-1.3c0-0.7,0.5-1.3,1.8-1.3h1.3V94
		c0-0.7-0.4-1.1-1.2-1.1c-0.5,0-1.1,0.2-1.4,0.5l-0.3-0.6c0.5-0.4,1.2-0.6,1.9-0.6C160.7,92.2,161.4,92.8,161.4,94z M160.5,95.4
		v-0.6h-1.3c-0.8,0-1,0.3-1,0.7c0,0.5,0.4,0.7,1,0.7C159.8,96.2,160.3,95.9,160.5,95.4z"/>
	<path d="M167.2,94.1v2.6h-0.8v-2.5c0-0.9-0.4-1.3-1.2-1.3c-0.9,0-1.4,0.5-1.4,1.5v2.3h-0.8v-4.6h0.8v0.7c0.3-0.5,0.9-0.7,1.6-0.7
		C166.5,92.2,167.2,92.8,167.2,94.1z"/>
	<path d="M168.4,94.5c0-1.4,1-2.3,2.4-2.3c0.8,0,1.5,0.3,1.9,1l-0.6,0.4c-0.3-0.4-0.7-0.7-1.2-0.7c-0.9,0-1.6,0.6-1.6,1.6
		c0,1,0.7,1.6,1.6,1.6c0.5,0,0.9-0.2,1.2-0.7l0.6,0.4c-0.4,0.6-1,1-1.9,1C169.4,96.8,168.4,95.8,168.4,94.5z"/>
	<path d="M178,94.1v2.6h-0.8v-2.5c0-0.9-0.4-1.3-1.2-1.3c-0.9,0-1.4,0.5-1.4,1.5v2.3h-0.8v-6.4h0.8v2.5c0.3-0.4,0.9-0.7,1.6-0.7
		C177.2,92.2,178,92.8,178,94.1z"/>
	<path d="M183.6,94.8h-3.7c0.1,0.8,0.7,1.3,1.7,1.3c0.5,0,1-0.2,1.3-0.6l0.5,0.5c-0.4,0.5-1,0.7-1.8,0.7c-1.5,0-2.5-1-2.5-2.3
		c0-1.4,1-2.3,2.3-2.3c1.3,0,2.3,0.9,2.3,2.3C183.7,94.6,183.7,94.7,183.6,94.8z M179.9,94.2h2.9c-0.1-0.8-0.7-1.3-1.5-1.3
		C180.6,92.9,180,93.4,179.9,94.2z"/>
	<path d="M184.2,96.3l0.3-0.7c0.4,0.3,1,0.5,1.6,0.5c0.8,0,1.1-0.2,1.1-0.6c0-1-2.9-0.1-2.9-2c0-0.8,0.7-1.4,1.9-1.4
		c0.6,0,1.3,0.2,1.7,0.4l-0.4,0.7c-0.4-0.3-0.9-0.4-1.3-0.4c-0.7,0-1.1,0.3-1.1,0.6c0,1.1,2.9,0.2,2.9,2c0,0.8-0.8,1.4-2,1.4
		C185.4,96.8,184.6,96.6,184.2,96.3z"/>
	<path d="M191.7,96.5c-0.2,0.2-0.6,0.3-1,0.3c-0.9,0-1.4-0.5-1.4-1.4v-2.5h-0.8v-0.7h0.8v-1h0.8v1h1.3v0.7h-1.3v2.5
		c0,0.5,0.3,0.8,0.7,0.8c0.2,0,0.5-0.1,0.6-0.2L191.7,96.5z"/>
	<path d="M196.6,94.8h-3.7c0.1,0.8,0.7,1.3,1.7,1.3c0.5,0,1-0.2,1.3-0.6l0.5,0.5c-0.4,0.5-1,0.7-1.8,0.7c-1.5,0-2.5-1-2.5-2.3
		c0-1.4,1-2.3,2.3-2.3c1.3,0,2.3,0.9,2.3,2.3C196.7,94.6,196.7,94.7,196.6,94.8z M192.9,94.2h2.9c-0.1-0.8-0.7-1.3-1.5-1.3
		C193.6,92.9,193,93.4,192.9,94.2z"/>
	<path d="M200.3,92.2V93c-0.1,0-0.1,0-0.2,0c-0.9,0-1.4,0.5-1.4,1.5v2.3h-0.8v-4.6h0.8V93C198.9,92.4,199.5,92.2,200.3,92.2z"/>
	<path d="M202,96.2c0,0.2,0,0.3-0.1,0.6l-0.4,1.2h-0.5l0.3-1.3c-0.2-0.1-0.4-0.3-0.4-0.5c0-0.3,0.2-0.6,0.6-0.6
		C201.8,95.6,202,95.9,202,96.2z"/>
	<path d="M206.8,91.5h-2.1v-0.7h5v0.7h-2.1v5.3h-0.9V91.5z"/>
	<path d="M214.9,94.1v2.6h-0.8v-2.5c0-0.9-0.4-1.3-1.2-1.3c-0.9,0-1.4,0.5-1.4,1.5v2.3h-0.8v-6.4h0.8v2.5c0.3-0.4,0.9-0.7,1.6-0.7
		C214.1,92.2,214.9,92.8,214.9,94.1z"/>
	<path d="M220.6,94.8h-3.7c0.1,0.8,0.7,1.3,1.7,1.3c0.5,0,1-0.2,1.3-0.6l0.5,0.5c-0.4,0.5-1,0.7-1.8,0.7c-1.5,0-2.5-1-2.5-2.3
		c0-1.4,1-2.3,2.3-2.3c1.3,0,2.3,0.9,2.3,2.3C220.6,94.6,220.6,94.7,220.6,94.8z M216.9,94.2h2.9c-0.1-0.8-0.7-1.3-1.5-1.3
		C217.5,92.9,217,93.4,216.9,94.2z"/>
	<path d="M224.2,90.7h0.9V96h3.3v0.7h-4.1V90.7z"/>
	<path d="M228.7,94.5c0-1.4,1-2.3,2.4-2.3c1.4,0,2.4,1,2.4,2.3c0,1.4-1,2.3-2.4,2.3C229.7,96.8,228.7,95.8,228.7,94.5z M232.6,94.5
		c0-1-0.7-1.6-1.5-1.6c-0.9,0-1.5,0.6-1.5,1.6c0,1,0.7,1.6,1.5,1.6C231.9,96.1,232.6,95.5,232.6,94.5z"/>
	<path d="M241.4,92.2l-1.7,4.6h-0.8l-1.3-3.5l-1.3,3.5h-0.8l-1.7-4.6h0.8l1.3,3.6l1.4-3.6h0.7l1.4,3.6l1.4-3.6H241.4z"/>
	<path d="M244.7,92.2V93c-0.1,0-0.1,0-0.2,0c-0.9,0-1.4,0.5-1.4,1.5v2.3h-0.8v-4.6h0.8V93C243.3,92.4,243.8,92.2,244.7,92.2z"/>
	<path d="M249.9,92.2l-2.2,5c-0.4,1-0.9,1.3-1.6,1.3c-0.4,0-0.9-0.1-1.2-0.4l0.4-0.6c0.2,0.2,0.5,0.3,0.8,0.3c0.4,0,0.6-0.2,0.9-0.7
		l0.1-0.3l-2-4.6h0.9l1.6,3.6l1.6-3.6H249.9z"/>
	<path d="M251.2,96.2c0,0.2,0,0.3-0.1,0.6l-0.4,1.2h-0.5l0.3-1.3c-0.2-0.1-0.4-0.3-0.4-0.5c0-0.3,0.2-0.6,0.6-0.6
		C250.9,95.6,251.2,95.9,251.2,96.2z"/>
	<path d="M260.4,96.8l0-4.4l-2.2,3.7h-0.4l-2.2-3.6v4.4h-0.8v-6h0.7L258,95l2.5-4.2h0.7l0,6H260.4z"/>
	<path d="M266.6,95c0,1-0.7,1.8-2.3,1.8c-0.9,0-1.7-0.3-2.2-0.7l0.4-0.7c0.4,0.4,1.1,0.6,1.8,0.6c0.9,0,1.4-0.4,1.4-1.1
		c0-0.6-0.5-1-1.5-1h-0.5v-0.6l1.5-1.9h-2.9v-0.7h4v0.6l-1.6,1.9C266,93.4,266.6,94.1,266.6,95z"/>
	<path d="M7.4,101.8H5.4v-0.7h5v0.7H8.3v5.3H7.4V101.8z"/>
	<path d="M15.5,104.5v2.6h-0.8v-2.5c0-0.9-0.4-1.3-1.2-1.3c-0.9,0-1.4,0.5-1.4,1.5v2.3h-0.8v-6.4H12v2.5c0.3-0.4,0.9-0.7,1.6-0.7
		C14.7,102.5,15.5,103.1,15.5,104.5z"/>
	<path d="M21.3,102.5v4.6h-0.8v-0.7c-0.3,0.5-0.9,0.7-1.5,0.7c-1.2,0-2-0.6-2-2v-2.6h0.8v2.5c0,0.9,0.4,1.3,1.2,1.3
		c0.9,0,1.4-0.5,1.4-1.5v-2.4H21.3z"/>
	<path d="M25.3,102.5v0.8c-0.1,0-0.1,0-0.2,0c-0.9,0-1.4,0.5-1.4,1.5v2.3h-0.8v-4.6h0.8v0.8C24,102.8,24.5,102.5,25.3,102.5z"/>
	<path d="M25.8,106.6l0.3-0.7c0.4,0.3,1,0.5,1.6,0.5c0.8,0,1.1-0.2,1.1-0.6c0-1-2.9-0.1-2.9-2c0-0.8,0.7-1.4,1.9-1.4
		c0.6,0,1.3,0.2,1.7,0.4l-0.4,0.7c-0.4-0.3-0.9-0.4-1.3-0.4c-0.7,0-1.1,0.3-1.1,0.6c0,1.1,2.9,0.2,2.9,2c0,0.8-0.8,1.4-2,1.4
		C26.9,107.2,26.2,106.9,25.8,106.6z"/>
	<path d="M35,100.7v6.4h-0.8v-0.7c-0.4,0.5-1,0.8-1.6,0.8c-1.3,0-2.3-0.9-2.3-2.3c0-1.4,1-2.3,2.3-2.3c0.6,0,1.2,0.2,1.6,0.7v-2.5
		H35z M34.2,104.8c0-1-0.7-1.6-1.5-1.6c-0.9,0-1.5,0.6-1.5,1.6c0,1,0.7,1.6,1.5,1.6C33.5,106.4,34.2,105.8,34.2,104.8z"/>
	<path d="M40.2,104.4v2.8h-0.8v-0.6c-0.3,0.4-0.8,0.7-1.5,0.7c-1,0-1.7-0.6-1.7-1.3c0-0.7,0.5-1.3,1.8-1.3h1.3v-0.2
		c0-0.7-0.4-1.1-1.2-1.1c-0.5,0-1.1,0.2-1.4,0.5l-0.3-0.6c0.5-0.4,1.2-0.6,1.9-0.6C39.5,102.5,40.2,103.1,40.2,104.4z M39.4,105.7
		v-0.6h-1.3c-0.8,0-1,0.3-1,0.7c0,0.5,0.4,0.7,1,0.7C38.7,106.5,39.1,106.2,39.4,105.7z"/>
	<path d="M45.7,102.5l-2.2,5c-0.4,1-0.9,1.3-1.6,1.3c-0.4,0-0.9-0.1-1.2-0.4l0.4-0.6c0.2,0.2,0.5,0.3,0.8,0.3c0.4,0,0.6-0.2,0.9-0.7
		l0.1-0.3l-2-4.6h0.9l1.6,3.6l1.6-3.6H45.7z"/>
	<path d="M52.9,104c0,2.1-1.2,3.2-2.8,3.2c-0.6,0-1.1-0.1-1.5-0.4l0.3-0.7c0.3,0.2,0.7,0.3,1.2,0.3c1.2,0,2-0.8,2-2.3v-0.2
		c-0.4,0.5-1,0.8-1.7,0.8c-1.2,0-2.1-0.7-2.1-1.8c0-1.2,0.9-1.9,2.1-1.9C52,101,52.9,102.1,52.9,104z M51.8,102.9
		c0-0.6-0.5-1.2-1.4-1.2c-0.8,0-1.3,0.5-1.3,1.2c0,0.7,0.5,1.2,1.4,1.2C51.2,104,51.8,103.5,51.8,102.9z"/>
	<path d="M61.7,101.1v6H61l-3.6-4.5v4.5h-0.9v-6h0.7l3.6,4.5v-4.5H61.7z"/>
	<path d="M63,104.8c0-1.4,1-2.3,2.4-2.3c1.4,0,2.4,1,2.4,2.3c0,1.4-1,2.3-2.4,2.3C64,107.2,63,106.2,63,104.8z M66.9,104.8
		c0-1-0.7-1.6-1.5-1.6s-1.5,0.6-1.5,1.6c0,1,0.7,1.6,1.5,1.6S66.9,105.8,66.9,104.8z"/>
	<path d="M72.8,102.5l-2,4.6h-0.8l-2-4.6h0.9l1.6,3.7l1.6-3.7H72.8z"/>
	<path d="M77.5,105.1h-3.7c0.1,0.8,0.7,1.3,1.7,1.3c0.5,0,1-0.2,1.3-0.6l0.5,0.5c-0.4,0.5-1,0.7-1.8,0.7c-1.5,0-2.5-1-2.5-2.3
		c0-1.4,1-2.3,2.3-2.3c1.3,0,2.3,0.9,2.3,2.3C77.5,104.9,77.5,105,77.5,105.1z M73.8,104.5h2.9c-0.1-0.8-0.7-1.3-1.5-1.3
		C74.5,103.2,73.9,103.7,73.8,104.5z"/>
	<path d="M86.3,104.5v2.6h-0.8v-2.5c0-0.9-0.4-1.3-1.2-1.3c-0.8,0-1.4,0.5-1.4,1.5v2.3h-0.8v-2.5c0-0.9-0.4-1.3-1.2-1.3
		c-0.8,0-1.4,0.5-1.4,1.5v2.3h-0.8v-4.6h0.8v0.7c0.3-0.5,0.9-0.7,1.6-0.7c0.7,0,1.3,0.3,1.6,0.8c0.3-0.5,1-0.8,1.8-0.8
		C85.5,102.5,86.3,103.1,86.3,104.5z"/>
	<path d="M92.5,104.8c0,1.4-1,2.3-2.3,2.3c-0.7,0-1.3-0.3-1.6-0.8v0.7h-0.8v-6.4h0.8v2.5c0.4-0.5,0.9-0.7,1.6-0.7
		C91.5,102.5,92.5,103.4,92.5,104.8z M91.7,104.8c0-1-0.7-1.6-1.5-1.6c-0.9,0-1.5,0.6-1.5,1.6c0,1,0.7,1.6,1.5,1.6
		C91,106.4,91.7,105.8,91.7,104.8z"/>
	<path d="M97.8,105.1h-3.7c0.1,0.8,0.7,1.3,1.7,1.3c0.5,0,1-0.2,1.3-0.6l0.5,0.5c-0.4,0.5-1,0.7-1.8,0.7c-1.5,0-2.5-1-2.5-2.3
		c0-1.4,1-2.3,2.3-2.3c1.3,0,2.3,0.9,2.3,2.3C97.8,104.9,97.8,105,97.8,105.1z M94.1,104.5H97c-0.1-0.8-0.7-1.3-1.5-1.3
		C94.7,103.2,94.1,103.7,94.1,104.5z"/>
	<path d="M101.4,102.5v0.8c-0.1,0-0.1,0-0.2,0c-0.9,0-1.4,0.5-1.4,1.5v2.3h-0.8v-4.6h0.8v0.8C100,102.8,100.6,102.5,101.4,102.5z"/>
	<path d="M104.5,104.4h2.3v0.7h-2.3V104.4z"/>
	<path d="M114.7,104.1h0.8v2.3c-0.6,0.5-1.4,0.8-2.3,0.8c-1.9,0-3.2-1.3-3.2-3.1c0-1.8,1.4-3.1,3.2-3.1c1,0,1.8,0.3,2.3,0.9
		l-0.5,0.5c-0.5-0.5-1.1-0.7-1.7-0.7c-1.4,0-2.4,1-2.4,2.3c0,1.3,1,2.3,2.4,2.3c0.5,0,1-0.1,1.4-0.4V104.1z"/>
	<path d="M117,100.7h0.8v6.4H117V100.7z"/>
	<path d="M123.1,104.4v2.8h-0.8v-0.6c-0.3,0.4-0.8,0.7-1.5,0.7c-1,0-1.7-0.6-1.7-1.3c0-0.7,0.5-1.3,1.8-1.3h1.3v-0.2
		c0-0.7-0.4-1.1-1.2-1.1c-0.5,0-1.1,0.2-1.4,0.5l-0.3-0.6c0.5-0.4,1.2-0.6,1.9-0.6C122.3,102.5,123.1,103.1,123.1,104.4z
		 M122.2,105.7v-0.6H121c-0.8,0-1,0.3-1,0.7c0,0.5,0.4,0.7,1,0.7C121.5,106.5,122,106.2,122.2,105.7z"/>
	<path d="M124,106.6l0.3-0.7c0.4,0.3,1,0.5,1.6,0.5c0.8,0,1.1-0.2,1.1-0.6c0-1-2.9-0.1-2.9-2c0-0.8,0.7-1.4,1.9-1.4
		c0.6,0,1.3,0.2,1.7,0.4l-0.4,0.7c-0.4-0.3-0.9-0.4-1.3-0.4c-0.7,0-1.1,0.3-1.1,0.6c0,1.1,2.9,0.2,2.9,2c0,0.8-0.8,1.4-2,1.4
		C125.1,107.2,124.4,106.9,124,106.6z"/>
	<path d="M133.3,102.5v3.9c0,1.6-0.8,2.3-2.4,2.3c-0.8,0-1.7-0.2-2.2-0.7l0.4-0.6c0.4,0.4,1.1,0.6,1.8,0.6c1.1,0,1.6-0.5,1.6-1.5
		v-0.4c-0.4,0.5-1,0.7-1.6,0.7c-1.3,0-2.3-0.9-2.3-2.2c0-1.3,1-2.2,2.3-2.2c0.7,0,1.3,0.2,1.7,0.7v-0.7H133.3z M132.5,104.7
		c0-0.9-0.7-1.5-1.6-1.5c-0.9,0-1.6,0.6-1.6,1.5c0,0.9,0.7,1.5,1.6,1.5C131.8,106.2,132.5,105.6,132.5,104.7z"/>
	<path d="M134.4,104.8c0-1.4,1-2.3,2.4-2.3c1.4,0,2.4,1,2.4,2.3c0,1.4-1,2.3-2.4,2.3C135.4,107.2,134.4,106.2,134.4,104.8z
		 M138.3,104.8c0-1-0.7-1.6-1.5-1.6s-1.5,0.6-1.5,1.6c0,1,0.7,1.6,1.5,1.6S138.3,105.8,138.3,104.8z"/>
	<path d="M147.1,102.5l-1.7,4.6h-0.8l-1.3-3.5l-1.3,3.5h-0.8l-1.7-4.6h0.8l1.3,3.6l1.4-3.6h0.7l1.4,3.6l1.4-3.6H147.1z"/>
	<path d="M148.4,106.6c0,0.2,0,0.3-0.1,0.6l-0.4,1.2h-0.5l0.3-1.3c-0.2-0.1-0.4-0.3-0.4-0.5c0-0.3,0.2-0.6,0.6-0.6
		S148.4,106.2,148.4,106.6z"/>
	<path d="M154,104.4l-1.1,1.1v1.6H152v-6h0.9v3.4l3.3-3.4h1l-2.6,2.7l2.7,3.3h-1L154,104.4z"/>
	<path d="M157.9,101.1c0-0.3,0.2-0.5,0.6-0.5s0.6,0.2,0.6,0.5c0,0.3-0.2,0.6-0.6,0.6C158.1,101.7,157.9,101.4,157.9,101.1z
		 M158,102.5h0.8v4.6H158V102.5z"/>
	<path d="M168,104.5v2.6h-0.8v-2.5c0-0.9-0.4-1.3-1.2-1.3c-0.8,0-1.4,0.5-1.4,1.5v2.3h-0.8v-2.5c0-0.9-0.4-1.3-1.2-1.3
		c-0.8,0-1.4,0.5-1.4,1.5v2.3h-0.8v-4.6h0.8v0.7c0.3-0.5,0.9-0.7,1.6-0.7c0.7,0,1.3,0.3,1.6,0.8c0.3-0.5,1-0.8,1.8-0.8
		C167.2,102.5,168,103.1,168,104.5z"/>
	<path d="M174.3,104.8c0,1.4-1,2.3-2.3,2.3c-0.6,0-1.2-0.2-1.6-0.7v2.4h-0.8v-6.2h0.8v0.7c0.4-0.5,1-0.8,1.6-0.8
		C173.3,102.5,174.3,103.4,174.3,104.8z M173.4,104.8c0-1-0.7-1.6-1.5-1.6c-0.9,0-1.5,0.6-1.5,1.6c0,1,0.7,1.6,1.5,1.6
		C172.8,106.4,173.4,105.8,173.4,104.8z"/>
	<path d="M178,106.8c-0.2,0.2-0.6,0.3-1,0.3c-0.9,0-1.4-0.5-1.4-1.4v-2.5h-0.8v-0.7h0.8v-1h0.8v1h1.3v0.7h-1.3v2.5
		c0,0.5,0.3,0.8,0.7,0.8c0.2,0,0.5-0.1,0.6-0.2L178,106.8z"/>
	<path d="M178.4,104.8c0-1.4,1-2.3,2.4-2.3c1.4,0,2.4,1,2.4,2.3c0,1.4-1,2.3-2.4,2.3C179.4,107.2,178.4,106.2,178.4,104.8z
		 M182.3,104.8c0-1-0.7-1.6-1.5-1.6s-1.5,0.6-1.5,1.6c0,1,0.7,1.6,1.5,1.6S182.3,105.8,182.3,104.8z"/>
	<path d="M188.6,104.5v2.6h-0.8v-2.5c0-0.9-0.4-1.3-1.2-1.3c-0.9,0-1.4,0.5-1.4,1.5v2.3h-0.8v-4.6h0.8v0.7c0.3-0.5,0.9-0.7,1.6-0.7
		C187.8,102.5,188.6,103.1,188.6,104.5z"/>
	<path d="M190.9,106.6c0,0.2,0,0.3-0.1,0.6l-0.4,1.2h-0.5l0.3-1.3c-0.2-0.1-0.4-0.3-0.4-0.5c0-0.3,0.2-0.6,0.6-0.6
		C190.7,106,190.9,106.2,190.9,106.6z"/>
	<path d="M199.7,105.5c0,1-0.8,1.6-2.3,1.6h-2.9v-6h2.7c1.4,0,2.2,0.6,2.2,1.6c0,0.7-0.3,1.1-0.8,1.3
		C199.3,104.2,199.7,104.7,199.7,105.5z M195.4,101.8v1.9h1.8c0.9,0,1.4-0.3,1.4-1s-0.5-1-1.4-1H195.4z M198.8,105.4
		c0-0.7-0.5-1-1.5-1h-2v2h2C198.3,106.4,198.8,106.1,198.8,105.4z"/>
	<path d="M200.9,100.7h0.8v6.4h-0.8V100.7z"/>
	<path d="M207.4,102.5l-2.2,5c-0.4,1-0.9,1.3-1.6,1.3c-0.4,0-0.9-0.1-1.2-0.4l0.4-0.6c0.2,0.2,0.5,0.3,0.8,0.3
		c0.4,0,0.6-0.2,0.9-0.7l0.1-0.3l-2-4.6h0.9l1.6,3.6l1.6-3.6H207.4z"/>
	<path d="M210.8,106.8c-0.2,0.2-0.6,0.3-1,0.3c-0.9,0-1.4-0.5-1.4-1.4v-2.5h-0.8v-0.7h0.8v-1h0.8v1h1.3v0.7h-1.3v2.5
		c0,0.5,0.3,0.8,0.7,0.8c0.2,0,0.5-0.1,0.6-0.2L210.8,106.8z"/>
	<path d="M216.2,104.5v2.6h-0.8v-2.5c0-0.9-0.4-1.3-1.2-1.3c-0.9,0-1.4,0.5-1.4,1.5v2.3h-0.8v-6.4h0.8v2.5c0.3-0.4,0.9-0.7,1.6-0.7
		C215.4,102.5,216.2,103.1,216.2,104.5z"/>
	<path d="M217.1,106.6l0.3-0.7c0.4,0.3,1,0.5,1.6,0.5c0.8,0,1.1-0.2,1.1-0.6c0-1-2.9-0.1-2.9-2c0-0.8,0.7-1.4,1.9-1.4
		c0.6,0,1.3,0.2,1.7,0.4l-0.4,0.7c-0.4-0.3-0.9-0.4-1.3-0.4c-0.7,0-1.1,0.3-1.1,0.6c0,1.1,2.9,0.2,2.9,2c0,0.8-0.8,1.4-2,1.4
		C218.3,107.2,217.5,106.9,217.1,106.6z"/>
	<path d="M228.8,102.5l-1.7,4.6h-0.8l-1.3-3.5l-1.3,3.5h-0.8l-1.7-4.6h0.8l1.3,3.6l1.4-3.6h0.7l1.4,3.6l1.4-3.6H228.8z"/>
	<path d="M229.1,104.8c0-1.4,1-2.3,2.4-2.3c1.4,0,2.4,1,2.4,2.3c0,1.4-1,2.3-2.4,2.3C230.1,107.2,229.1,106.2,229.1,104.8z
		 M233,104.8c0-1-0.7-1.6-1.5-1.6c-0.9,0-1.5,0.6-1.5,1.6c0,1,0.7,1.6,1.5,1.6C232.4,106.4,233,105.8,233,104.8z"/>
	<path d="M234.6,104.8c0-1.4,1-2.3,2.4-2.3c1.4,0,2.4,1,2.4,2.3c0,1.4-1,2.3-2.4,2.3C235.6,107.2,234.6,106.2,234.6,104.8z
		 M238.5,104.8c0-1-0.7-1.6-1.5-1.6c-0.9,0-1.5,0.6-1.5,1.6c0,1,0.7,1.6,1.5,1.6C237.9,106.4,238.5,105.8,238.5,104.8z"/>
	<path d="M244.8,100.7v6.4H244v-0.7c-0.4,0.5-1,0.8-1.6,0.8c-1.3,0-2.3-0.9-2.3-2.3c0-1.4,1-2.3,2.3-2.3c0.6,0,1.2,0.2,1.6,0.7v-2.5
		H244.8z M244,104.8c0-1-0.7-1.6-1.5-1.6c-0.9,0-1.5,0.6-1.5,1.6c0,1,0.7,1.6,1.5,1.6C243.3,106.4,244,105.8,244,104.8z"/>
	<path d="M248.2,106.4l0.3-0.7c0.4,0.4,1.2,0.7,2,0.7c1,0,1.5-0.4,1.5-0.9c0-1.5-3.6-0.5-3.6-2.8c0-0.9,0.7-1.7,2.3-1.7
		c0.7,0,1.4,0.2,1.9,0.5l-0.3,0.7c-0.5-0.3-1.1-0.5-1.7-0.5c-1,0-1.5,0.4-1.5,1c0,1.5,3.6,0.6,3.6,2.8c0,0.9-0.7,1.7-2.3,1.7
		C249.6,107.2,248.7,106.9,248.2,106.4z"/>
	<path d="M258.3,102.5v6.2h-0.8v-2.4c-0.4,0.5-0.9,0.7-1.6,0.7c-1.3,0-2.3-0.9-2.3-2.3c0-1.4,1-2.3,2.3-2.3c0.7,0,1.3,0.3,1.6,0.8
		v-0.7H258.3z M257.5,104.8c0-1-0.7-1.6-1.5-1.6c-0.9,0-1.5,0.6-1.5,1.6c0,1,0.7,1.6,1.5,1.6C256.8,106.4,257.5,105.8,257.5,104.8z"
		/>
	<path d="M264.2,102.5v4.6h-0.8v-0.7c-0.3,0.5-0.9,0.7-1.5,0.7c-1.2,0-2-0.6-2-2v-2.6h0.8v2.5c0,0.9,0.4,1.3,1.2,1.3
		c0.9,0,1.4-0.5,1.4-1.5v-2.4H264.2z"/>
	<path d="M269.3,104.4v2.8h-0.8v-0.6c-0.3,0.4-0.8,0.7-1.5,0.7c-1,0-1.7-0.6-1.7-1.3c0-0.7,0.5-1.3,1.8-1.3h1.3v-0.2
		c0-0.7-0.4-1.1-1.2-1.1c-0.5,0-1.1,0.2-1.4,0.5l-0.3-0.6c0.5-0.4,1.2-0.6,1.9-0.6C268.6,102.5,269.3,103.1,269.3,104.4z
		 M268.5,105.7v-0.6h-1.3c-0.8,0-1,0.3-1,0.7c0,0.5,0.4,0.7,1,0.7C267.8,106.5,268.3,106.2,268.5,105.7z"/>
	<path d="M273.3,102.5v0.8c-0.1,0-0.1,0-0.2,0c-0.9,0-1.4,0.5-1.4,1.5v2.3h-0.8v-4.6h0.8v0.8C272,102.8,272.5,102.5,273.3,102.5z"/>
	<path d="M278.4,105.1h-3.7c0.1,0.8,0.7,1.3,1.7,1.3c0.5,0,1-0.2,1.3-0.6l0.5,0.5c-0.4,0.5-1,0.7-1.8,0.7c-1.5,0-2.5-1-2.5-2.3
		c0-1.4,1-2.3,2.3-2.3c1.3,0,2.3,0.9,2.3,2.3C278.4,104.9,278.4,105,278.4,105.1z M274.7,104.5h2.9c-0.1-0.8-0.7-1.3-1.5-1.3
		C275.4,103.2,274.8,103.7,274.7,104.5z"/>
	<path d="M280.3,106.6c0,0.2,0,0.3-0.1,0.6l-0.4,1.2h-0.5l0.3-1.3c-0.2-0.1-0.4-0.3-0.4-0.5c0-0.3,0.2-0.6,0.6-0.6
		C280.1,106,280.3,106.2,280.3,106.6z"/>
	<path d="M288.1,104.1h0.8v2.3c-0.6,0.5-1.4,0.8-2.3,0.8c-1.9,0-3.2-1.3-3.2-3.1c0-1.8,1.4-3.1,3.2-3.1c1,0,1.8,0.3,2.3,0.9
		l-0.5,0.5c-0.5-0.5-1.1-0.7-1.7-0.7c-1.4,0-2.4,1-2.4,2.3c0,1.3,1,2.3,2.4,2.3c0.5,0,1-0.1,1.4-0.4V104.1z"/>
	<path d="M294.4,106.4v0.7H290v-0.6l2.5-2.4c0.6-0.6,0.8-1,0.8-1.4c0-0.6-0.4-1-1.3-1c-0.6,0-1.2,0.2-1.5,0.7l-0.6-0.5
		c0.5-0.6,1.3-0.9,2.2-0.9c1.3,0,2.1,0.6,2.1,1.7c0,0.6-0.2,1.1-1,1.9l-1.8,1.8H294.4z"/>
	<path d="M34.3,111.4l-2,6h-0.9l-1.6-4.8l-1.6,4.8h-0.9l-2-6H26l1.6,4.9l1.7-4.9h0.8l1.7,4.9l1.7-4.9H34.3z"/>
	<path d="M39,115.4h-3.7c0.1,0.8,0.7,1.3,1.7,1.3c0.5,0,1-0.2,1.3-0.6l0.5,0.5c-0.4,0.5-1,0.7-1.8,0.7c-1.5,0-2.5-1-2.5-2.3
		c0-1.4,1-2.3,2.3-2.3c1.3,0,2.3,0.9,2.3,2.3C39,115.3,39,115.4,39,115.4z M35.3,114.8h2.9c-0.1-0.8-0.7-1.3-1.5-1.3
		C36,113.5,35.4,114.1,35.3,114.8z"/>
	<path d="M44.5,111.1v6.4h-0.8v-0.7c-0.4,0.5-1,0.8-1.6,0.8c-1.3,0-2.3-0.9-2.3-2.3c0-1.4,1-2.3,2.3-2.3c0.6,0,1.2,0.2,1.6,0.7v-2.5
		H44.5z M43.6,115.2c0-1-0.7-1.6-1.5-1.6c-0.9,0-1.5,0.6-1.5,1.6c0,1,0.7,1.6,1.5,1.6C43,116.8,43.6,116.1,43.6,115.2z"/>
	<path d="M50.4,114.8v2.6h-0.8v-2.5c0-0.9-0.4-1.3-1.2-1.3c-0.9,0-1.4,0.5-1.4,1.5v2.3H46v-4.6h0.8v0.7c0.3-0.5,0.9-0.7,1.6-0.7
		C49.6,112.8,50.4,113.5,50.4,114.8z"/>
	<path d="M56,115.4h-3.7c0.1,0.8,0.7,1.3,1.7,1.3c0.5,0,1-0.2,1.3-0.6l0.5,0.5c-0.4,0.5-1,0.7-1.8,0.7c-1.5,0-2.5-1-2.5-2.3
		c0-1.4,1-2.3,2.3-2.3c1.3,0,2.3,0.9,2.3,2.3C56,115.3,56,115.4,56,115.4z M52.3,114.8h2.9c-0.1-0.8-0.7-1.3-1.5-1.3
		C53,113.5,52.4,114.1,52.3,114.8z"/>
	<path d="M56.6,117l0.3-0.7c0.4,0.3,1,0.5,1.6,0.5c0.8,0,1.1-0.2,1.1-0.6c0-1-2.9-0.1-2.9-2c0-0.8,0.7-1.4,1.9-1.4
		c0.6,0,1.3,0.2,1.7,0.4l-0.4,0.7c-0.4-0.3-0.9-0.4-1.3-0.4c-0.7,0-1.1,0.3-1.1,0.6c0,1.1,2.9,0.2,2.9,2c0,0.8-0.8,1.4-2,1.4
		C57.7,117.5,57,117.3,56.6,117z"/>
	<path d="M65.8,111.1v6.4H65v-0.7c-0.4,0.5-1,0.8-1.6,0.8c-1.3,0-2.3-0.9-2.3-2.3c0-1.4,1-2.3,2.3-2.3c0.6,0,1.2,0.2,1.6,0.7v-2.5
		H65.8z M65,115.2c0-1-0.7-1.6-1.5-1.6c-0.9,0-1.5,0.6-1.5,1.6c0,1,0.7,1.6,1.5,1.6C64.3,116.8,65,116.1,65,115.2z"/>
	<path d="M71,114.7v2.8h-0.8v-0.6c-0.3,0.4-0.8,0.7-1.5,0.7c-1,0-1.7-0.6-1.7-1.3c0-0.7,0.5-1.3,1.8-1.3h1.3v-0.2
		c0-0.7-0.4-1.1-1.2-1.1c-0.5,0-1.1,0.2-1.4,0.5l-0.3-0.6c0.5-0.4,1.2-0.6,1.9-0.6C70.3,112.8,71,113.4,71,114.7z M70.2,116v-0.6
		h-1.3c-0.8,0-1,0.3-1,0.7c0,0.5,0.4,0.7,1,0.7C69.5,116.9,70,116.6,70.2,116z"/>
	<path d="M76.5,112.9l-2.2,5c-0.4,1-0.9,1.3-1.6,1.3c-0.4,0-0.9-0.1-1.2-0.4l0.4-0.6c0.2,0.2,0.5,0.3,0.8,0.3c0.4,0,0.6-0.2,0.9-0.7
		l0.1-0.3l-2-4.6h0.9l1.6,3.6l1.6-3.6H76.5z"/>
	<path d="M81.1,111.4v6h-0.9v-5.3h-1.4v-0.7H81.1z"/>
	<path d="M86.6,115.6c0,1-0.7,1.9-2.3,1.9c-0.9,0-1.7-0.3-2.2-0.7l0.4-0.7c0.4,0.4,1.1,0.6,1.8,0.6c0.9,0,1.4-0.4,1.4-1.1
		c0-0.7-0.4-1.1-1.8-1.1h-1.4l0.3-3.1h3.4v0.7h-2.7l-0.2,1.7h0.7C85.9,113.8,86.6,114.6,86.6,115.6z"/>
	<path d="M95.3,111.4v6h-0.7l-3.6-4.5v4.5h-0.9v-6h0.7l3.6,4.5v-4.5H95.3z"/>
	<path d="M96.6,115.2c0-1.4,1-2.3,2.4-2.3c1.4,0,2.4,1,2.4,2.3c0,1.4-1,2.3-2.4,2.3C97.6,117.5,96.6,116.5,96.6,115.2z M100.5,115.2
		c0-1-0.7-1.6-1.5-1.6s-1.5,0.6-1.5,1.6c0,1,0.7,1.6,1.5,1.6S100.5,116.1,100.5,115.2z"/>
	<path d="M106.4,112.9l-2,4.6h-0.8l-2-4.6h0.9l1.6,3.7l1.6-3.7H106.4z"/>
	<path d="M111.1,115.4h-3.7c0.1,0.8,0.7,1.3,1.7,1.3c0.5,0,1-0.2,1.3-0.6l0.5,0.5c-0.4,0.5-1,0.7-1.8,0.7c-1.5,0-2.5-1-2.5-2.3
		c0-1.4,1-2.3,2.3-2.3c1.3,0,2.3,0.9,2.3,2.3C111.2,115.3,111.2,115.4,111.1,115.4z M107.4,114.8h2.9c-0.1-0.8-0.7-1.3-1.5-1.3
		C108.1,113.5,107.5,114.1,107.4,114.8z"/>
	<path d="M119.9,114.8v2.6h-0.8v-2.5c0-0.9-0.4-1.3-1.2-1.3c-0.8,0-1.4,0.5-1.4,1.5v2.3h-0.8v-2.5c0-0.9-0.4-1.3-1.2-1.3
		c-0.8,0-1.4,0.5-1.4,1.5v2.3h-0.8v-4.6h0.8v0.7c0.3-0.5,0.9-0.7,1.6-0.7c0.7,0,1.3,0.3,1.6,0.8c0.3-0.5,1-0.8,1.8-0.8
		C119.1,112.8,119.9,113.5,119.9,114.8z"/>
	<path d="M126.1,115.2c0,1.4-1,2.3-2.3,2.3c-0.7,0-1.3-0.3-1.6-0.8v0.7h-0.8v-6.4h0.8v2.5c0.4-0.5,0.9-0.7,1.6-0.7
		C125.2,112.8,126.1,113.8,126.1,115.2z M125.3,115.2c0-1-0.7-1.6-1.5-1.6c-0.9,0-1.5,0.6-1.5,1.6c0,1,0.7,1.6,1.5,1.6
		C124.6,116.8,125.3,116.1,125.3,115.2z"/>
	<path d="M131.4,115.4h-3.7c0.1,0.8,0.7,1.3,1.7,1.3c0.5,0,1-0.2,1.3-0.6l0.5,0.5c-0.4,0.5-1,0.7-1.8,0.7c-1.5,0-2.5-1-2.5-2.3
		c0-1.4,1-2.3,2.3-2.3c1.3,0,2.3,0.9,2.3,2.3C131.4,115.3,131.4,115.4,131.4,115.4z M127.7,114.8h2.9c-0.1-0.8-0.7-1.3-1.5-1.3
		C128.4,113.5,127.8,114.1,127.7,114.8z"/>
	<path d="M135,112.8v0.8c-0.1,0-0.1,0-0.2,0c-0.9,0-1.4,0.5-1.4,1.5v2.3h-0.8v-4.6h0.8v0.8C133.6,113.1,134.2,112.8,135,112.8z"/>
	<path d="M138.1,114.7h2.3v0.7h-2.3V114.7z"/>
	<path d="M149.3,111.4v6h-0.9v-2.7H145v2.7h-0.9v-6h0.9v2.6h3.5v-2.6H149.3z"/>
	<path d="M154.6,114.7v2.8h-0.8v-0.6c-0.3,0.4-0.8,0.7-1.5,0.7c-1,0-1.7-0.6-1.7-1.3c0-0.7,0.5-1.3,1.8-1.3h1.3v-0.2
		c0-0.7-0.4-1.1-1.2-1.1c-0.5,0-1.1,0.2-1.4,0.5l-0.3-0.6c0.5-0.4,1.2-0.6,1.9-0.6C153.9,112.8,154.6,113.4,154.6,114.7z M153.8,116
		v-0.6h-1.3c-0.8,0-1,0.3-1,0.7c0,0.5,0.4,0.7,1,0.7C153.1,116.9,153.6,116.6,153.8,116z"/>
	<path d="M158.6,112.8v0.8c-0.1,0-0.1,0-0.2,0c-0.9,0-1.4,0.5-1.4,1.5v2.3h-0.8v-4.6h0.8v0.8C157.2,113.1,157.8,112.8,158.6,112.8z"
		/>
	<path d="M162.1,112.8v0.8c-0.1,0-0.1,0-0.2,0c-0.9,0-1.4,0.5-1.4,1.5v2.3h-0.8v-4.6h0.8v0.8C160.7,113.1,161.3,112.8,162.1,112.8z"
		/>
	<path d="M162.6,115.2c0-1.4,1-2.3,2.4-2.3c1.4,0,2.4,1,2.4,2.3c0,1.4-1,2.3-2.4,2.3C163.6,117.5,162.6,116.5,162.6,115.2z
		 M166.5,115.2c0-1-0.7-1.6-1.5-1.6s-1.5,0.6-1.5,1.6c0,1,0.7,1.6,1.5,1.6S166.5,116.1,166.5,115.2z"/>
	<path d="M172.9,112.9v3.9c0,1.6-0.8,2.3-2.4,2.3c-0.8,0-1.7-0.2-2.2-0.7l0.4-0.6c0.4,0.4,1.1,0.6,1.8,0.6c1.1,0,1.6-0.5,1.6-1.5
		v-0.4c-0.4,0.5-1,0.7-1.6,0.7c-1.3,0-2.3-0.9-2.3-2.2c0-1.3,1-2.2,2.3-2.2c0.7,0,1.3,0.2,1.7,0.7v-0.7H172.9z M172.1,115
		c0-0.9-0.7-1.5-1.6-1.5c-0.9,0-1.6,0.6-1.6,1.5c0,0.9,0.7,1.5,1.6,1.5C171.4,116.5,172.1,115.9,172.1,115z"/>
	<path d="M178.1,114.7v2.8h-0.8v-0.6c-0.3,0.4-0.8,0.7-1.5,0.7c-1,0-1.7-0.6-1.7-1.3c0-0.7,0.5-1.3,1.8-1.3h1.3v-0.2
		c0-0.7-0.4-1.1-1.2-1.1c-0.5,0-1.1,0.2-1.4,0.5l-0.3-0.6c0.5-0.4,1.2-0.6,1.9-0.6C177.4,112.8,178.1,113.4,178.1,114.7z M177.3,116
		v-0.6H176c-0.8,0-1,0.3-1,0.7c0,0.5,0.4,0.7,1,0.7C176.6,116.9,177.1,116.6,177.3,116z"/>
	<path d="M182.2,117.2c-0.2,0.2-0.6,0.3-1,0.3c-0.9,0-1.4-0.5-1.4-1.4v-2.5H179v-0.7h0.8v-1h0.8v1h1.3v0.7h-1.3v2.5
		c0,0.5,0.3,0.8,0.7,0.8c0.2,0,0.5-0.1,0.6-0.2L182.2,117.2z"/>
	<path d="M187.1,115.4h-3.7c0.1,0.8,0.7,1.3,1.7,1.3c0.5,0,1-0.2,1.3-0.6l0.5,0.5c-0.4,0.5-1,0.7-1.8,0.7c-1.5,0-2.5-1-2.5-2.3
		c0-1.4,1-2.3,2.3-2.3c1.3,0,2.3,0.9,2.3,2.3C187.2,115.3,187.1,115.4,187.1,115.4z M183.4,114.8h2.9c-0.1-0.8-0.7-1.3-1.5-1.3
		C184.1,113.5,183.5,114.1,183.4,114.8z"/>
	<path d="M189.1,116.9c0,0.2,0,0.3-0.1,0.6l-0.4,1.2H188l0.3-1.3c-0.2-0.1-0.4-0.3-0.4-0.5c0-0.3,0.2-0.6,0.6-0.6
		C188.8,116.3,189.1,116.6,189.1,116.9z"/>
	<path d="M196.7,117.4l-1.3-1.9c-0.1,0-0.2,0-0.4,0h-1.5v1.8h-0.9v-6h2.3c1.6,0,2.5,0.8,2.5,2.1c0,0.9-0.5,1.6-1.3,1.9l1.4,2H196.7z
		 M196.7,113.5c0-0.9-0.6-1.4-1.7-1.4h-1.5v2.7h1.5C196.1,114.9,196.7,114.4,196.7,113.5z"/>
	<path d="M203.1,112.9v4.6h-0.8v-0.7c-0.3,0.5-0.9,0.7-1.5,0.7c-1.2,0-2-0.6-2-2v-2.6h0.8v2.5c0,0.9,0.4,1.3,1.2,1.3
		c0.9,0,1.4-0.5,1.4-1.5v-2.4H203.1z"/>
	<path d="M209,111.1v6.4h-0.8v-0.7c-0.4,0.5-1,0.8-1.6,0.8c-1.3,0-2.3-0.9-2.3-2.3c0-1.4,1-2.3,2.3-2.3c0.6,0,1.2,0.2,1.6,0.7v-2.5
		H209z M208.2,115.2c0-1-0.7-1.6-1.5-1.6c-0.9,0-1.5,0.6-1.5,1.6c0,1,0.7,1.6,1.5,1.6C207.5,116.8,208.2,116.1,208.2,115.2z"/>
	<path d="M214.8,111.1v6.4H214v-0.7c-0.4,0.5-1,0.8-1.6,0.8c-1.3,0-2.3-0.9-2.3-2.3c0-1.4,1-2.3,2.3-2.3c0.6,0,1.2,0.2,1.6,0.7v-2.5
		H214.8z M214,115.2c0-1-0.7-1.6-1.5-1.6c-0.9,0-1.5,0.6-1.5,1.6c0,1,0.7,1.6,1.5,1.6C213.4,116.8,214,116.1,214,115.2z"/>
	<path d="M216.3,111.5c0-0.3,0.2-0.5,0.6-0.5s0.6,0.2,0.6,0.5c0,0.3-0.2,0.6-0.6,0.6C216.5,112,216.3,111.8,216.3,111.5z
		 M216.4,112.9h0.8v4.6h-0.8V112.9z"/>
	<path d="M223.1,114.8v2.6h-0.8v-2.5c0-0.9-0.4-1.3-1.2-1.3c-0.9,0-1.4,0.5-1.4,1.5v2.3h-0.8v-4.6h0.8v0.7c0.3-0.5,0.9-0.7,1.6-0.7
		C222.4,112.8,223.1,113.5,223.1,114.8z"/>
	<path d="M229.1,112.9v3.9c0,1.6-0.8,2.3-2.4,2.3c-0.8,0-1.7-0.2-2.2-0.7l0.4-0.6c0.4,0.4,1.1,0.6,1.8,0.6c1.1,0,1.6-0.5,1.6-1.5
		v-0.4c-0.4,0.5-1,0.7-1.6,0.7c-1.3,0-2.3-0.9-2.3-2.2c0-1.3,1-2.2,2.3-2.2c0.7,0,1.3,0.2,1.7,0.7v-0.7H229.1z M228.3,115
		c0-0.9-0.7-1.5-1.6-1.5c-0.9,0-1.6,0.6-1.6,1.5c0,0.9,0.7,1.5,1.6,1.5C227.6,116.5,228.3,115.9,228.3,115z"/>
	<path d="M237.9,113.5c0,1.3-0.9,2.1-2.5,2.1h-1.5v1.8h-0.9v-6h2.3C237,111.4,237.9,112.2,237.9,113.5z M237.1,113.5
		c0-0.9-0.6-1.4-1.7-1.4h-1.5v2.7h1.5C236.5,114.9,237.1,114.4,237.1,113.5z"/>
	<path d="M242.7,114.7v2.8h-0.8v-0.6c-0.3,0.4-0.8,0.7-1.5,0.7c-1,0-1.7-0.6-1.7-1.3c0-0.7,0.5-1.3,1.8-1.3h1.3v-0.2
		c0-0.7-0.4-1.1-1.2-1.1c-0.5,0-1.1,0.2-1.4,0.5l-0.3-0.6c0.5-0.4,1.2-0.6,1.9-0.6C242,112.8,242.7,113.4,242.7,114.7z M241.8,116
		v-0.6h-1.3c-0.8,0-1,0.3-1,0.7c0,0.5,0.4,0.7,1,0.7C241.1,116.9,241.6,116.6,241.8,116z"/>
	<path d="M246.7,112.8v0.8c-0.1,0-0.1,0-0.2,0c-0.9,0-1.4,0.5-1.4,1.5v2.3h-0.8v-4.6h0.8v0.8C245.3,113.1,245.9,112.8,246.7,112.8z"
		/>
	<path d="M249.4,115.3l-0.9,0.9v1.2h-0.8v-6.4h0.8v4.1l2.5-2.3h1l-1.9,1.9l2.1,2.7h-1L249.4,115.3z"/>
	<path d="M253.8,116.9c0,0.2,0,0.3-0.1,0.6l-0.4,1.2h-0.5l0.3-1.3c-0.2-0.1-0.4-0.3-0.4-0.5c0-0.3,0.2-0.6,0.6-0.6
		C253.6,116.3,253.8,116.6,253.8,116.9z"/>
	<path d="M262.6,111.4v6h-0.9v-2.7h-3.5v2.7h-0.9v-6h0.9v2.6h3.5v-2.6H262.6z"/>
	<path d="M268.6,114.4h0.8v2.3c-0.6,0.5-1.4,0.8-2.3,0.8c-1.9,0-3.2-1.3-3.2-3.1c0-1.8,1.4-3.1,3.2-3.1c1,0,1.8,0.3,2.3,0.9
		l-0.5,0.5c-0.5-0.5-1.1-0.7-1.7-0.7c-1.4,0-2.4,1-2.4,2.3c0,1.3,1,2.3,2.4,2.3c0.5,0,1-0.1,1.4-0.4V114.4z"/>
	<path d="M274.7,115.7c0,1-0.7,1.8-2.3,1.8c-0.9,0-1.7-0.3-2.2-0.7l0.4-0.7c0.4,0.4,1.1,0.6,1.8,0.6c0.9,0,1.4-0.4,1.4-1.1
		c0-0.6-0.5-1-1.5-1h-0.5V114l1.5-1.9h-2.9v-0.7h4v0.6l-1.6,1.9C274.1,114.1,274.7,114.7,274.7,115.7z"/>
</g>
<g>
	<path d="M78.2,74.9c0,0.9-0.6,1.8-1.5,2.8L74.5,80h4.1v1.3h-6v-1l3.1-3.3c0.6-0.6,1-1.3,1-1.8c0-0.7-0.5-1.1-1.4-1.1
		c-0.7,0-1.6,0.4-2.3,1.1L72.5,74c0.9-0.7,2-1.2,3.1-1.2C77.1,72.8,78.2,73.7,78.2,74.9z"/>
	<path d="M86.8,77.1c0,2.7-1.3,4.2-3.6,4.2c-2.3,0-3.6-1.5-3.6-4.2s1.3-4.2,3.6-4.2C85.6,72.8,86.8,74.4,86.8,77.1z M81.1,77.1
		c0,2.1,0.7,3.1,2.1,3.1c1.4,0,2.1-1,2.1-3.1c0-2.1-0.7-3.1-2.1-3.1C81.8,74,81.1,74.9,81.1,77.1z"/>
	<path d="M93.5,74.9c0,0.9-0.6,1.8-1.5,2.8L89.8,80h4.1v1.3h-6v-1l3.1-3.3c0.6-0.6,1-1.3,1-1.8c0-0.7-0.5-1.1-1.4-1.1
		c-0.7,0-1.6,0.4-2.3,1.1L87.8,74c0.9-0.7,2-1.2,3.1-1.2C92.4,72.8,93.5,73.7,93.5,74.9z"/>
	<path d="M98,76.4c1.4,0.1,2.4,0.9,2.4,2.3c0,1.6-1.2,2.7-3.1,2.7c-1,0-2.1-0.4-2.8-0.9l0.6-1.2c0.6,0.6,1.4,0.9,2.1,0.9
		c1.1,0,1.8-0.6,1.8-1.4c0-0.9-0.7-1.4-1.8-1.4h-1.2v-0.8l2.2-2.4h-3.4v-1.3h5.1v0.9l-2.4,2.6L98,76.4z"/>
	<path d="M105.1,81.3v-8.4h1.4v8.4H105.1z"/>
	<path d="M114.8,77.3v4h-1.4v-3.6c0-1-0.6-1.5-1.5-1.5c-1.1,0-1.7,0.7-1.8,1.7v3.4h-1.4v-6.4h1.4v1.2c0.5-0.9,1.3-1.3,2.4-1.3
		C113.9,74.9,114.8,75.8,114.8,77.3z"/>
	<path d="M117.9,81.3l-2.5-6.4h1.4l1.8,5l1.8-5h1.4l-2.4,6.4H117.9z"/>
	<path d="M128.1,78.6h-4.8c0.2,1,1,1.6,2,1.6c0.7,0,1.3-0.3,1.8-0.7l0.7,0.8c-0.6,0.7-1.5,1.1-2.6,1.1c-2,0-3.3-1.3-3.3-3.2
		c0-1.9,1.3-3.2,3.2-3.3C127.4,74.9,128.3,76.3,128.1,78.6z M126.9,77.6c0-1-0.7-1.7-1.8-1.7c-1,0-1.7,0.6-1.9,1.7H126.9z"/>
	<path d="M133.7,75.5l-0.5,1c-0.6-0.3-1.3-0.6-1.8-0.6c-0.5,0-0.9,0.2-0.9,0.6c0,1.2,3.4,0.5,3.4,2.9c0,1.3-1.2,1.9-2.4,1.9
		c-0.9,0-1.9-0.3-2.6-0.9l0.5-1c0.6,0.5,1.4,0.8,2.1,0.8c0.6,0,1-0.2,1-0.7c0-1.3-3.4-0.6-3.3-2.9c0-1.3,1.1-1.8,2.4-1.8
		C132.3,74.8,133.1,75.1,133.7,75.5z"/>
	<path d="M138.8,80.9c-0.5,0.3-1,0.5-1.6,0.5c-1,0-1.8-0.6-1.8-1.9v-3.3h-0.9v-1h0.9v-1.8h1.4v1.8h1.9v1h-1.9v3.1
		c0,0.7,0.3,0.9,0.7,0.9c0.3,0,0.6-0.1,1-0.3L138.8,80.9z"/>
	<path d="M146.1,78.1c0,1.9-1.4,3.2-3.3,3.2c-2,0-3.3-1.3-3.3-3.2c0-1.9,1.4-3.2,3.3-3.2C144.7,74.9,146.1,76.2,146.1,78.1z
		 M140.8,78.1c0,1.2,0.8,2.1,2,2.1c1.1,0,1.9-0.8,1.9-2.1c0-1.2-0.8-2.1-1.9-2.1C141.6,76,140.8,76.9,140.8,78.1z"/>
	<path d="M148.9,76.2c0.4-0.9,1.2-1.3,2.2-1.3v1.3c-1.3-0.1-2.1,0.7-2.2,1.8v3.3h-1.4v-6.4h1.4V76.2z"/>
	<path d="M162.3,74.1l-0.8,1c-0.6-0.7-1.5-1.1-2.3-1.1c-1.7,0-3,1.3-3,3s1.3,3,3,3c0.8,0,1.7-0.4,2.3-1l0.8,0.9
		c-0.9,0.8-2.1,1.4-3.2,1.4c-2.5,0-4.4-1.9-4.4-4.3c0-2.4,1.9-4.2,4.4-4.2C160.3,72.8,161.5,73.3,162.3,74.1z"/>
	<path d="M169.6,78.1c0,1.9-1.4,3.2-3.3,3.2c-2,0-3.3-1.3-3.3-3.2c0-1.9,1.4-3.2,3.3-3.2C168.2,74.9,169.6,76.2,169.6,78.1z
		 M164.3,78.1c0,1.2,0.8,2.1,2,2.1c1.1,0,1.9-0.8,1.9-2.1c0-1.2-0.8-2.1-1.9-2.1C165.1,76,164.3,76.9,164.3,78.1z"/>
	<path d="M177.1,77.3v4h-1.4v-3.6c0-1-0.6-1.5-1.5-1.5c-1.1,0-1.7,0.7-1.8,1.7v3.4H171v-6.4h1.4v1.2c0.5-0.9,1.3-1.3,2.4-1.3
		C176.2,74.9,177.1,75.8,177.1,77.3z"/>
	<path d="M180.6,74.4v0.8h1.7v1h-1.7v5.1h-1.4v-5.1h-0.8v-1h0.8v-0.6c0-1.5,1.1-2.2,2.2-2.2c0.5,0,1,0.1,1.4,0.4l-0.5,1.1
		c-0.3-0.2-0.6-0.3-0.9-0.3C181,73.5,180.6,73.8,180.6,74.4z"/>
	<path d="M188.6,78.6h-4.8c0.2,1,1,1.6,2,1.6c0.7,0,1.3-0.3,1.8-0.7l0.7,0.8c-0.6,0.7-1.5,1.1-2.6,1.1c-2,0-3.3-1.3-3.3-3.2
		c0-1.9,1.3-3.2,3.2-3.3C187.8,74.9,188.7,76.3,188.6,78.6z M187.4,77.6c0-1-0.7-1.7-1.8-1.7c-1,0-1.7,0.6-1.9,1.7H187.4z"/>
	<path d="M191.4,76.2c0.4-0.9,1.2-1.3,2.2-1.3v1.3c-1.3-0.1-2.1,0.7-2.2,1.8v3.3H190v-6.4h1.4V76.2z"/>
	<path d="M200.4,78.6h-4.8c0.2,1,1,1.6,2,1.6c0.7,0,1.3-0.3,1.8-0.7l0.7,0.8c-0.6,0.7-1.5,1.1-2.6,1.1c-2,0-3.3-1.3-3.3-3.2
		c0-1.9,1.3-3.2,3.2-3.3C199.6,74.9,200.5,76.3,200.4,78.6z M199.2,77.6c0-1-0.7-1.7-1.8-1.7c-1,0-1.7,0.6-1.9,1.7H199.2z"/>
	<path d="M207.9,77.3v4h-1.4v-3.6c0-1-0.6-1.5-1.5-1.5c-1.1,0-1.7,0.7-1.8,1.7v3.4h-1.4v-6.4h1.4v1.2c0.5-0.9,1.3-1.3,2.4-1.3
		C207,74.9,207.9,75.8,207.9,77.3z"/>
	<path d="M215,75.9l-0.8,0.9c-0.4-0.5-1.1-0.7-1.8-0.7c-1.1,0-1.9,0.8-1.9,2s0.8,2,1.9,2c0.8,0,1.5-0.3,1.9-0.8l0.8,0.8
		c-0.6,0.8-1.5,1.2-2.7,1.2c-1.9,0-3.2-1.3-3.2-3.2c0-1.9,1.3-3.3,3.2-3.3C213.5,74.9,214.4,75.2,215,75.9z"/>
	<path d="M221.9,78.6h-4.8c0.2,1,1,1.6,2,1.6c0.7,0,1.3-0.3,1.8-0.7l0.7,0.8c-0.6,0.7-1.5,1.1-2.6,1.1c-2,0-3.3-1.3-3.3-3.2
		c0-1.9,1.3-3.2,3.2-3.3C221.1,74.9,222,76.3,221.9,78.6z M220.7,77.6c0-1-0.7-1.7-1.8-1.7c-1,0-1.7,0.6-1.9,1.7H220.7z"/>
	<path d="M227.5,75.5l-0.5,1c-0.6-0.3-1.3-0.6-1.8-0.6c-0.5,0-0.9,0.2-0.9,0.6c0,1.2,3.4,0.5,3.4,2.9c0,1.3-1.2,1.9-2.4,1.9
		c-0.9,0-1.9-0.3-2.6-0.9l0.5-1c0.6,0.5,1.4,0.8,2.1,0.8c0.6,0,1-0.2,1-0.7c0-1.3-3.4-0.6-3.3-2.9c0-1.3,1.1-1.8,2.4-1.8
		C226,74.8,226.9,75.1,227.5,75.5z"/>
</g>
</svg>
